<?xml version="1.0" encoding="UTF-8"?>
<!DOCTYPE svg PUBLIC "-//W3C//DTD SVG 1.1//EN" "http://www.w3.org/Graphics/SVG/1.1/DTD/svg11.dtd">
<!-- Creator: CorelDRAW 2018 (64 Bit) -->
<svg xmlns="http://www.w3.org/2000/svg" xml:space="preserve" width="145.215mm" height="145.215mm" version="1.1" shape-rendering="geometricPrecision" text-rendering="geometricPrecision" image-rendering="optimizeQuality" fill-rule="evenodd" clip-rule="evenodd"
viewBox="0 0 142.6802 142.6802"
 xmlns:xlink="http://www.w3.org/1999/xlink">
 <g id="Camada_x0020_1">
  <metadata id="CorelCorpID_0Corel-Layer"/>
  <path fill="#3B325D" d="M117.3526 103.944l-2.9246 0.005c-0.7115,2.7157 1.0365,1.7021 2.8891,2.0858 0.1288,0.7543 -0.304,1.8536 0.1566,2.4961 0.5521,0.7701 1.1566,0.1735 1.6794,-0.0296l0.089 -2.5257c1.9059,-0.1611 3.1814,0.5349 2.7898,-1.8908l-2.7609 -0.1481c-0.1496,-1.0899 0.0473,-1.7755 -0.1966,-2.8981 -2.3175,-0.7171 -1.6017,1.1996 -1.7217,2.9054z"/>
  <path fill="#3B325D" d="M52.1359 21.5971c-3.1502,0.1077 -2.4178,0.2649 -2.5315,1.6645l2.5396 0.105c0.167,1.107 -0.6614,3.5348 1.6276,2.6775 0.2079,-0.6251 0.066,-1.8346 0.1644,-2.6357 0.8098,-0.1928 3.4296,0.4375 2.1861,-1.6713l-2.0875 -0.1459c-0.3024,-0.6135 -0.1596,-2.1167 -0.1735,-2.9178 -0.7614,-0.1394 -1.4371,-0.4882 -1.6205,0.4881 -0.1515,0.8062 0.1034,1.668 -0.1045,2.4354z"/>
  <path fill="#3B325D" d="M26.2841 32.9571c0.9866,0.1805 2.2473,0.1634 3.2075,0.0092 0.3666,-3.473 0.0616,-3.1785 -1.6248,-3.1972 -1.5459,-0.0172 -1.8775,-0.4752 -1.5827,3.188z"/>
  <path fill="#2D2642" d="M80.2925 76.3754c0.5772,-0.0986 0.6586,-0.1958 0.9364,-0.5815l0.2617 -0.5843c0.2694,-1.3719 -0.5676,-1.444 -0.7353,-1.5773l-1.6531 -1.8329c-0.4517,-0.5203 -0.5695,-0.8685 -1.2009,-1.2953 0.0525,-0.0473 0.2611,-0.2395 0.2706,-0.2476l1.0358 -1.0774c0.7786,-1.1199 3.5092,-2.9609 1.9854,-4.2115 -1.5536,-1.2749 -2.4402,0.3974 -4.1431,2.1898 -0.5142,0.5412 -0.6951,0.9347 -1.2512,1.2514 -0.4464,-0.2554 -0.9327,-0.8916 -1.3062,-1.3348 -1.1149,-1.3231 -0.7713,-1.2125 -1.7908,-1.8326 -0.4805,-0.2923 -0.999,-1.5562 -2.1938,-0.4515 -0.937,0.8662 -0.7289,1.3713 -0.171,2.1075 2.2368,2.9511 2.0181,2.0193 2.5784,2.7191 1.3783,1.7217 0.365,1.1462 -0.3951,1.9233 -0.414,0.4233 -0.6752,0.8042 -1.1357,1.2397 -0.521,0.4926 -2.2452,1.8645 -0.9651,3.107 1.3151,1.2765 2.3923,-0.0705 3.0127,-0.7801l2.3666 -2.3776c0.4453,0.4098 0.7096,0.828 1.1237,1.2588 0.4505,0.4686 0.2671,0.1017 0.7194,0.517 0.9163,0.8411 1.0512,2.1442 2.6505,1.8708z"/>
  <path fill="#2D2642" d="M99.0122 70.7452c0.1016,-0.0363 1.9849,-2.1012 2.3327,-2.4222 0.912,-0.8419 2.0661,-1.8171 1.0318,-3.0781 -1.3712,-1.6716 -2.6946,1.0506 -3.741,1.6228l-1.3335 1.1753c-0.2634,0.267 -0.3226,0.4358 -0.5501,0.649 -1.0546,-0.7133 -3.76,-5.4302 -5.4068,-3.3948 -1.0045,1.2414 0.3843,2.3825 1.6531,3.7592 0.4969,0.5392 1.1447,0.4084 1.752,1.7874 -0.2522,0.2625 -0.3115,0.4623 -0.6548,0.681 -1.0308,0.6568 -1.0729,0.8438 -2.1629,2.012 -1.8291,1.9604 0.0465,3.3066 1.0046,3.0341l4.0808 -3.7157c0.3353,0.4408 0.7352,0.7964 1.153,1.1953 1.2151,1.16 2.5918,3.3798 4.0599,2.1303 1.4508,-1.2348 -0.2937,-2.3817 -0.8712,-2.9538l-2.3475 -2.4818z"/>
  <path fill="#2D2642" d="M84.613 82.1219c1.3109,-0.0964 2.6195,-0.0657 3.8279,0.4 1.2958,0.4994 1.4713,0.8597 2.0951,1.2426 1.7811,1.0933 0.5165,0.2038 1.6644,1.696 0.7172,0.9323 1.6157,4.1073 3.347,2.567 0.9986,-0.8883 0.1224,-2.343 -0.3193,-3.2293 -0.28,-0.5616 -1.0255,-1.7588 -1.3587,-1.9937 -0.468,-0.3298 -0.2842,-0.0141 -0.6051,-0.5057 -0.3202,-0.4906 0.1147,-0.1356 -0.5446,-0.5708 -0.8127,-0.5364 -0.8062,-0.6661 -2.0216,-1.3252 -3.2012,-1.7361 -7.6343,-1.5406 -10.5768,0.4128 -1.477,0.9805 -0.8321,0.544 -2.0878,1.8237l-0.5642 0.5385c-0.6089,0.7236 -3.1144,5.0301 -0.1345,5.0344 1.2953,0.0018 1.4438,-1.3958 1.974,-2.4927 0.3748,-0.7756 0.3685,-0.6039 0.8817,-1.35 0.3597,-0.5227 0.6236,-0.5811 1.2235,-1.005 0.8204,-0.5798 2.1647,-1.1664 3.199,-1.2425z"/>
  <path fill="#FABB69" d="M130.0477 13.4809c-2.9958,0.5876 -6.113,1.7712 -9.1686,2.4871 -5.6025,1.3125 -12.5908,3.4722 -18.3444,4.9225 -1.2838,0.3236 -17.2009,4.5393 -18.2166,5.0519 -1.6601,0.8376 -1.915,2.3213 -1.904,4.0148l0.0041 23.4085c0.0032,2.1528 -0.1199,3.7338 2.5025,2.9856 13.5061,-3.8532 27.6814,-7.1941 41.1128,-11.141 2.1385,-0.6283 5.4404,-0.806 6.1687,-2.5967 0.5274,-1.2965 0.3142,-6.8807 0.3146,-8.4763 0.0012,-3.9016 -0.0016,-7.8027 -0.0031,-11.7042 -0.0008,-1.9506 -0.0028,-3.9018 0.001,-5.8524 0.0035,-1.795 -0.4458,-3.4964 -2.4671,-3.0998z"/>
  <path fill="#FABB69" d="M36.0523 82.9725c-6.3097,1.8925 -15.9811,4.3781 -22.5467,6.0584 -5.5921,1.4311 -4.6328,1.4365 -4.6362,9.6192 -0.001,2.3686 -0.005,4.7373 -0.0064,7.1061 -0.0042,6.7194 -0.5362,4.8091 13.6688,1.347 1.9294,-0.4703 3.6843,-1.0597 5.5198,-1.5871 1.882,-0.5408 3.838,-0.9993 5.7466,-1.5023 2.0554,-0.5416 3.993,-0.6437 4.599,-2.4968 0.2767,-0.846 0.1359,-12.1775 0.1375,-14.0138 0.0018,-2.0714 0.4177,-5.4004 -2.4824,-4.5306z"/>
  <path fill="none" d="M83.7294 104.6134c-0.1226,2.271 0.3598,3.7856 2.6762,3.8981 1.344,0.0653 3.5084,-0.2492 4.7415,1.6716 1.3679,2.1307 -0.5576,2.6059 -2.4508,3.0191 -4.086,0.8918 -30.6222,7.0698 -31.7146,7.0645 -2.1487,-0.0103 -1.1942,-3.1225 -0.4759,-4.1283 0.9182,-1.2857 2.2203,-1.6634 3.9893,-2.5367 2.1746,-1.0734 2.1481,-2.8911 2.8866,-3.5397 0.2958,-0.2598 18.2603,-4.9154 20.3477,-5.4486zm33.6232 -0.6694c0.12,-1.7058 -0.5958,-3.6224 1.7217,-2.9054 0.2439,1.1227 0.047,1.8082 0.1966,2.8981l2.7609 0.1481c0.3915,2.4257 -0.8839,1.7297 -2.7898,1.8908l-0.089 2.5257c-0.5227,0.2031 -1.1273,0.7997 -1.6794,0.0296 -0.4606,-0.6425 -0.0278,-1.7418 -0.1566,-2.4961 -1.8526,-0.3838 -3.6005,0.6299 -2.8891,-2.0858l2.9246 -0.005zm-81.3003 -20.9715c2.9001,-0.8698 2.4842,2.4592 2.4824,4.5306 -0.0016,1.8363 0.1392,13.1678 -0.1375,14.0138 -0.606,1.8532 -2.5436,1.9553 -4.599,2.4968 -1.9086,0.503 -3.8646,0.9615 -5.7466,1.5023 -1.8355,0.5274 -3.5904,1.1168 -5.5198,1.5871 -14.205,3.4621 -13.6731,5.3724 -13.6688,-1.347 0.0014,-2.3688 0.0054,-4.7375 0.0064,-7.1061 0.0034,-8.1827 -0.9559,-8.1881 4.6362,-9.6192 6.5656,-1.6802 16.237,-4.1659 22.5467,-6.0584zm-15.2508 0.6051c-0.2453,-1.5357 -0.0547,-4.9286 -0.0578,-6.6641l-0.005 -19.6464c-0.0037,-2.8571 0.2758,-4.3631 2.7786,-5.6087 0.731,-0.3638 8.2611,-2.3912 8.883,-2.5371 4.7364,-1.1113 10.5922,-3.0204 15.5184,-4.2683 3.4969,-0.8858 30.0962,-8.4184 30.9334,-8.3438 0.6601,1.6779 0.2786,7.7747 0.2717,10.0291 -0.0108,3.4283 -0.0361,6.8878 -0.0061,10.3127 0.0075,0.8614 0.0794,1.9179 0.611,2.6131 0.0178,0.0232 0.0457,0.0534 0.0647,0.0754l0.2833 0.2754c1.2044,1.202 2.5981,0.3869 4.8852,-0.22l24.1614 -6.4809c0.9751,-0.2557 15.4614,-4.3045 16.0629,-4.2896 0.3347,0.6823 0.1994,28.6854 0.1651,33.384 -0.0121,1.6505 -0.0424,4.7977 -0.9677,6.0954 -1.0361,1.4533 -0.7952,1.1355 -2.1557,2.0228 -1.1259,0.7342 -10.5656,3.127 -12.9754,3.7383 -1.4782,0.3748 -2.9451,0.8249 -4.4055,1.1683 -2.9857,0.7021 -5.8437,1.6452 -8.8127,2.3353 -2.8132,0.654 -5.8065,1.5909 -8.6873,2.3227 -5.9853,1.5206 -11.7619,2.9669 -17.6684,4.6164 -5.8374,1.6301 -11.6646,3.0356 -17.4695,4.6913l-17.6395 4.651c-2.8673,0.8931 -5.934,1.4984 -8.8207,2.3213 -0.8484,0.2419 -1.3807,0.4425 -2.4037,0.2251 -0.5529,-0.1175 -0.4746,-0.1788 -0.9454,-0.426 -0.3842,-0.2017 -0.5623,-0.1138 -0.8621,-0.537 -0.0574,-0.081 -0.3742,-0.6753 -0.4917,-0.909 -0.377,-0.7507 -0.3901,-3.3495 -0.1837,-3.635 0.1326,-0.1835 14.0315,-3.9132 15.3037,-4.2208 2.1452,-0.5189 2.9482,-0.6619 4.3733,-2.1797 0.0277,-0.0295 0.1088,-0.1104 0.1358,-0.1404 0.2148,-0.2376 -0.0307,0.1217 0.2501,-0.3073 0.2819,-0.431 0.5426,-1.1364 0.6587,-1.6908 0.3225,-1.5391 0.145,-11.5459 0.1316,-14.429 -0.006,-1.2754 0.1338,-3.7362 -0.08,-4.8596 -0.3288,-1.7278 -0.7095,-2.2548 -1.9223,-2.9588 -1.5218,-0.8833 -2.016,-0.8557 -3.7579,-0.393 -2.5121,0.6673 -5.2004,1.313 -7.685,2.0689 -1.099,0.3345 -6.714,2.0214 -7.4687,1.7989zm109.2462 -70.0968c2.0213,-0.3966 2.4706,1.3048 2.4671,3.0998 -0.0038,1.9506 -0.0018,3.9018 -0.001,5.8524 0.0016,3.9016 0.0043,7.8027 0.0031,11.7042 -0.0004,1.5956 0.2128,7.1798 -0.3146,8.4763 -0.7283,1.7907 -4.0302,1.9683 -6.1687,2.5967 -13.4315,3.9469 -27.6067,7.2877 -41.1128,11.141 -2.6224,0.7482 -2.4993,-0.8328 -2.5025,-2.9856l-0.0041 -23.4085c-0.011,-1.6935 0.2439,-3.1772 1.904,-4.0148 1.0158,-0.5126 16.9328,-4.7284 18.2166,-5.0519 5.7536,-1.4503 12.7419,-3.6101 18.3444,-4.9225 3.0556,-0.7159 6.1728,-1.8995 9.1686,-2.4871zm-90.9959 26.2156c-0.0816,-0.6599 -0.3283,-1.5217 0.5137,-1.4577 0.6927,0.0527 0.4984,0.8157 0.4248,1.4609 0.4925,-0.0397 1.5984,-0.3145 1.5613,0.4244 -0.0396,0.7879 -0.8532,0.4513 -1.4729,0.5621l-0.0761 1.2849c-0.0032,-0.0178 -0.0186,0.0661 -0.0329,0.0971 -1.1135,0.2451 -0.9637,-0.5587 -0.9625,-1.4725l-1.3465 -0.0601c-0.1707,-0.3555 -0.2248,-0.4153 -0.0433,-0.8802l1.4346 0.0412zm-12.7677 -6.7394c-0.2949,-3.6631 0.0367,-3.2052 1.5827,-3.188 1.6864,0.0187 1.9914,-0.2758 1.6248,3.1972 -0.9602,0.1542 -2.2209,0.1713 -3.2075,-0.0092zm25.8518 -11.3601c0.2079,-0.7675 -0.047,-1.6293 0.1045,-2.4354 0.1834,-0.9764 0.8591,-0.6276 1.6205,-0.4881 0.014,0.8011 -0.1289,2.3043 0.1735,2.9178l2.0875 0.1459c1.2435,2.1088 -1.3762,1.4785 -2.1861,1.6713 -0.0984,0.8011 0.0435,2.0106 -0.1644,2.6357 -2.289,0.8573 -1.4605,-1.5705 -1.6276,-2.6775l-2.5396 -0.105c0.1137,-1.3996 -0.6187,-1.5568 2.5315,-1.6645zm-52.1359 121.0832l142.6802 0 0 -142.6802 -142.6802 0 0 142.6802z"/>
  <path fill="#6D60C7" d="M84.613 82.1219c-1.0342,0.0761 -2.3785,0.6627 -3.199,1.2425 -0.5998,0.424 -0.8638,0.4823 -1.2235,1.005 -0.5133,0.7461 -0.5069,0.5744 -0.8817,1.35 -0.5302,1.0969 -0.6787,2.4945 -1.974,2.4927 -2.9799,-0.0042 -0.4744,-4.3107 0.1345,-5.0344l0.5642 -0.5385c1.2557,-1.2797 0.6108,-0.8432 2.0878,-1.8237 2.9425,-1.9534 7.3756,-2.1488 10.5768,-0.4128 1.2154,0.6591 1.2089,0.7888 2.0216,1.3252 0.6593,0.4352 0.2244,0.0802 0.5446,0.5708 0.3209,0.4917 0.1372,0.1759 0.6051,0.5057 0.3332,0.2348 1.0786,1.4321 1.3587,1.9937 0.4418,0.8864 1.3179,2.341 0.3193,3.2293 -1.7313,1.5403 -2.6299,-1.6347 -3.347,-2.567 -1.1479,-1.4922 0.1166,-0.6027 -1.6644,-1.696 -0.6238,-0.3829 -0.7993,-0.7432 -2.0951,-1.2426 -1.2084,-0.4657 -2.517,-0.4964 -3.8279,-0.4zm-41.4181 -5.3585l-0.2053 -9.8936c0.0131,-0.5446 0.1849,-0.9605 0.501,-1.2284 0.8615,-0.7301 7.3667,-2.0308 9.1801,-2.5246 1.2148,-0.3309 1.482,-0.5414 2.7176,-0.2284 0.2991,1.855 0.0399,4.4314 0.1125,6.5011 0.0937,2.6768 0.7898,4.5552 -1.5331,5.0663 -2.5641,0.5642 -7.0583,1.9886 -9.2617,2.4827 -1.0556,0.2368 -0.5674,-0.0838 -1.5112,-0.175zm55.8173 -6.0182l2.3475 2.4818c0.5775,0.5721 2.322,1.7191 0.8712,2.9538 -1.4681,1.2495 -2.8448,-0.9704 -4.0599,-2.1303 -0.4178,-0.3988 -0.8177,-0.7545 -1.153,-1.1953l-4.0808 3.7157c-0.9582,0.2725 -2.8338,-1.0737 -1.0046,-3.0341 1.0899,-1.1681 1.1321,-1.3551 2.1629,-2.012 0.3433,-0.2187 0.4025,-0.4185 0.6548,-0.681 -0.6073,-1.379 -1.2551,-1.2482 -1.752,-1.7874 -1.2689,-1.3767 -2.6576,-2.5178 -1.6531,-3.7592 1.6468,-2.0354 4.3523,2.6815 5.4068,3.3948 0.2276,-0.2132 0.2867,-0.382 0.5501,-0.649l1.3335 -1.1753c1.0464,-0.5721 2.3698,-3.2944 3.741,-1.6228 1.0343,1.261 -0.1198,2.2362 -1.0318,3.0781 -0.3477,0.321 -2.2311,2.3859 -2.3327,2.4222zm-23.2134 -2.3364c0.556,-0.3167 0.737,-0.7102 1.2512,-1.2514 1.7028,-1.7924 2.5895,-3.4647 4.1431,-2.1898 1.5237,1.2506 -1.2069,3.0916 -1.9854,4.2115l-1.0358 1.0774c-0.0095,0.0081 -0.2181,0.2003 -0.2706,0.2476 0.6314,0.4268 0.7492,0.775 1.2009,1.2953l1.6531 1.8329c0.1677,0.1332 1.0047,0.2054 0.7353,1.5773l-0.2617 0.5843c-0.2778,0.3856 -0.3591,0.4828 -0.9364,0.5815 -1.5993,0.2734 -1.7342,-1.0297 -2.6505,-1.8708 -0.4524,-0.4153 -0.2689,-0.0484 -0.7194,-0.517 -0.4141,-0.4308 -0.6784,-0.849 -1.1237,-1.2588l-2.3666 2.3776c-0.6204,0.7096 -1.6975,2.0567 -3.0127,0.7801 -1.2802,-1.2425 0.444,-2.6143 0.9651,-3.107 0.4605,-0.4355 0.7217,-0.8164 1.1357,-1.2397 0.7601,-0.7771 1.7734,-0.2016 0.3951,-1.9233 -0.5602,-0.6998 -0.3416,0.232 -2.5784,-2.7191 -0.558,-0.7361 -0.766,-1.2412 0.171,-2.1075 1.1948,-1.1047 1.7134,0.1592 2.1938,0.4515 1.0195,0.6202 0.6759,0.5095 1.7908,1.8326 0.3735,0.4432 0.8598,1.0794 1.3062,1.3348zm-54.9973 15.1688c0.7547,0.2224 6.3697,-1.4645 7.4687,-1.7989 2.4846,-0.756 5.1729,-1.4016 7.685,-2.0689 1.742,-0.4627 2.2362,-0.4903 3.7579,0.393 1.2129,0.704 1.5936,1.231 1.9223,2.9588 0.2138,1.1233 0.074,3.5841 0.08,4.8596 0.0135,2.8832 0.1909,12.89 -0.1316,14.429 -0.1161,0.5544 -0.3768,1.2597 -0.6587,1.6908 -0.2807,0.4291 -0.0353,0.0698 -0.2501,0.3073 -0.027,0.03 -0.1081,0.1109 -0.1358,0.1404 -1.4251,1.5177 -2.2281,1.6608 -4.3733,2.1797 -1.2722,0.3076 -15.171,4.0373 -15.3037,4.2208 -0.2063,0.2855 -0.1933,2.8844 0.1837,3.635 0.1175,0.2337 0.4343,0.8281 0.4917,0.909 0.2998,0.4232 0.4779,0.3352 0.8621,0.537 0.4708,0.2472 0.3925,0.3085 0.9454,0.426 1.023,0.2174 1.5553,0.0168 2.4037,-0.2251 2.8867,-0.8229 5.9534,-1.4281 8.8207,-2.3213l17.6395 -4.651c5.8049,-1.6558 11.6321,-3.0612 17.4695,-4.6913 5.9065,-1.6495 11.6831,-3.0958 17.6684,-4.6164 2.8807,-0.7318 5.874,-1.6688 8.6873,-2.3227 2.969,-0.6901 5.8271,-1.6332 8.8127,-2.3353 1.4605,-0.3434 2.9273,-0.7935 4.4055,-1.1683 2.4098,-0.6112 11.8495,-3.0041 12.9754,-3.7383 1.3605,-0.8872 1.1196,-0.5695 2.1557,-2.0228 0.9253,-1.2977 0.9556,-4.4449 0.9677,-6.0954 0.0343,-4.6985 0.1696,-32.7017 -0.1651,-33.384 -0.6015,-0.0149 -15.0878,4.0339 -16.0629,4.2896l-24.1614 6.4809c-2.2871,0.6069 -3.6808,1.422 -4.8852,0.22l-0.2833 -0.2754c-0.019,-0.022 -0.0469,-0.0522 -0.0647,-0.0754 -0.5317,-0.6951 -0.6036,-1.7517 -0.611,-2.6131 -0.03,-3.4248 -0.0047,-6.8844 0.0061,-10.3127 0.007,-2.2544 0.3884,-8.3512 -0.2717,-10.0291 -0.8372,-0.0747 -27.4365,7.458 -30.9334,8.3438 -4.9262,1.2478 -10.7819,3.157 -15.5184,4.2683 -0.6219,0.1459 -8.152,2.1733 -8.883,2.5371 -2.5028,1.2457 -2.7824,2.7516 -2.7786,5.6087l0.005 19.6464c0.003,1.7355 -0.1876,5.1284 0.0578,6.6641z"/>
  <path fill="#FFF9E6" d="M83.7294 104.6134c-2.0874,0.5332 -20.0518,5.1888 -20.3477,5.4486 -0.7385,0.6486 -0.712,2.4663 -2.8866,3.5397 -1.7691,0.8733 -3.0711,1.2511 -3.9893,2.5367 -0.7182,1.0057 -1.6728,4.1179 0.4759,4.1283 1.0924,0.0053 27.6286,-6.1727 31.7146,-7.0645 1.8932,-0.4132 3.8187,-0.8883 2.4508,-3.0191 -1.2331,-1.9208 -3.3974,-1.6063 -4.7415,-1.6716 -2.3164,-0.1125 -2.7989,-1.6272 -2.6762,-3.8981z"/>
  <path fill="#312946" d="M43.1949 76.7634c0.9437,0.0912 0.4555,0.4118 1.5112,0.175 2.2035,-0.4941 6.6976,-1.9185 9.2617,-2.4827 2.3228,-0.5111 1.6268,-2.3894 1.5331,-5.0663 -0.0726,-2.0697 0.1866,-4.6461 -0.1125,-6.5011 -1.2356,-0.3129 -1.5028,-0.1025 -2.7176,0.2284 -1.8134,0.4938 -8.3186,1.7945 -9.1801,2.5246 -0.3161,0.2678 -0.4879,0.6838 -0.501,1.2284l0.2053 9.8936z"/>
  <path fill="#3D3362" d="M39.0518 39.6965l-1.4346 -0.0412c-0.1815,0.4648 -0.1273,0.5247 0.0433,0.8802l1.3465 0.0601c-0.0012,0.9139 -0.151,1.7177 0.9625,1.4725 0.0143,-0.031 0.0297,-0.1149 0.0329,-0.0971l0.0761 -1.2849c0.6197,-0.1108 1.4333,0.2258 1.4729,-0.5621 0.0371,-0.7389 -1.0688,-0.4641 -1.5613,-0.4244 0.0737,-0.6452 0.2679,-1.4083 -0.4248,-1.4609 -0.8419,-0.064 -0.5953,0.7978 -0.5137,1.4577z"/>
 </g>
</svg>
